HIERARCHY
ROOT Pelvis
{
	OFFSET 0.000000 0.000000 0.000000
	CHANNELS 6 Xposition Yposition Zposition Zrotation Yrotation Xrotation 
	JOINT Left_hip
	{
		OFFSET 0.069463 -0.088608 -0.009542
		CHANNELS 3 Zrotation Yrotation Xrotation
		JOINT Left_knee
		{
			OFFSET 0.030639 -0.359740 -0.005288
			CHANNELS 3 Zrotation Yrotation Xrotation
			JOINT Left_ankle
			{
				OFFSET -0.011068 -0.376034 -0.042462
				CHANNELS 3 Zrotation Yrotation Xrotation
				JOINT Left_foot
				{
					OFFSET 0.023192 -0.053321 0.111332
					CHANNELS 3 Zrotation Yrotation Xrotation
					End Site
					{
						OFFSET 0.000000 0.000000 0.000000
					}
				}
			}
		}
	}
	JOINT Right_hip
	{
		OFFSET -0.067438 -0.088025 -0.006263
		CHANNELS 3 Zrotation Yrotation Xrotation
		JOINT Right_knee
		{
			OFFSET -0.035962 -0.366229 -0.008063
			CHANNELS 3 Zrotation Yrotation Xrotation
			JOINT Right_ankle
			{
				OFFSET 0.013608 -0.375719 -0.040481
				CHANNELS 3 Zrotation Yrotation Xrotation
				JOINT Right_foot
				{
					OFFSET -0.021034 -0.045527 0.114617
					CHANNELS 3 Zrotation Yrotation Xrotation
					End Site
					{
						OFFSET 0.000000 0.000000 0.000000
					}
				}
			}
		}
	}
	JOINT Spine1
	{
		OFFSET -0.002610 0.101823 -0.019986
		CHANNELS 3 Zrotation Yrotation Xrotation
		JOINT Spine2
		{
			OFFSET 0.004114 0.128714 -0.000938
			CHANNELS 3 Zrotation Yrotation Xrotation
			JOINT Spine3
			{
				OFFSET 0.002191 0.048470 0.027684
				CHANNELS 3 Zrotation Yrotation Xrotation
				JOINT Neck
				{
					OFFSET -0.002856 0.198873 -0.044022
					CHANNELS 3 Zrotation Yrotation Xrotation
					JOINT Head
					{
						OFFSET 0.002981 0.062960 0.049860
						CHANNELS 3 Zrotation Yrotation Xrotation
						End Site
						{
							OFFSET 0.000000 0.000000 0.000000
						}
					}
				}
				JOINT Left_collar
				{
					OFFSET 0.073708 0.112550 -0.033440
					CHANNELS 3 Zrotation Yrotation Xrotation
					JOINT Left_shoulder
					{
						OFFSET 0.083291 0.030786 -0.008013
						CHANNELS 3 Zrotation Yrotation Xrotation
						JOINT Left_elbow
						{
							OFFSET 0.245601 -0.011792 -0.027873
							CHANNELS 3 Zrotation Yrotation Xrotation
							JOINT Left_wrist
							{
								OFFSET 0.232258 0.008622 -0.000487
								CHANNELS 3 Zrotation Yrotation Xrotation
								JOINT Left_palm
								{
									OFFSET 0.077300 -0.009457 -0.012851
									CHANNELS 3 Zrotation Yrotation Xrotation
									End Site
									{
										OFFSET 0.000000 0.000000 0.000000
									}
								}
							}
						}
					}
				}
				JOINT Right_collar
				{
					OFFSET -0.075339 0.110574 -0.037874
					CHANNELS 3 Zrotation Yrotation Xrotation
					JOINT Right_shoulder
					{
						OFFSET -0.086522 0.031207 -0.009986
						CHANNELS 3 Zrotation Yrotation Xrotation
						JOINT Right_elbow
						{
							OFFSET -0.237313 -0.011478 -0.019859
							CHANNELS 3 Zrotation Yrotation Xrotation
							JOINT Right_wrist
							{
								OFFSET -0.237599 0.007976 -0.003742
								CHANNELS 3 Zrotation Yrotation Xrotation
								JOINT Right_palm
								{
									OFFSET -0.076920 -0.006943 -0.009920
									CHANNELS 3 Zrotation Yrotation Xrotation
									End Site
									{
										OFFSET 0.000000 0.000000 0.000000
									}
								}
							}
						}
					}
				}
			}
		}
	}
}
MOTION
Frames: 16
Frame Time: 0.100000
0.000000 0.000000 0.000000 176.448926 29.388733 -22.842521 0.635063 3.646669 14.904256 1.305379 -12.470239 -3.685046 2.609744 5.943140 -4.272093 -6.926934 8.016875 -1.973787 -0.788927 -3.589904 17.812862 -1.721149 3.967093 -4.874884 -3.430123 -5.694203 -7.547643 8.860259 -3.088323 8.609912 2.072292 0.414260 7.252410 0.492559 -3.936349 5.127980 0.240780 -2.387099 -0.965575 0.460367 -8.957540 1.549895 -0.479978 -10.993022 -3.786042 -29.913828 1.769198 4.402930 -49.597727 -4.584698 6.380816 5.436963 -14.494796 10.220154 -9.400401 3.395114 -1.297053 -8.722894 -3.496219 -9.526253 30.525646 4.111509 2.564001 52.572769 2.963974 10.420207 -8.202913 13.903422 -4.394748 7.128505 -3.120551 -3.044061 11.389716 8.197853 -4.157617 
-0.003484 -0.000304 -0.001478 176.289592 31.591724 -22.865038 0.319906 3.309070 14.898024 1.082351 -13.304844 -4.247285 2.319703 5.080635 -3.682381 -6.812472 8.256154 -2.258382 -1.223206 -4.014441 18.111209 -1.664614 2.965470 -4.871033 -3.634663 -6.636112 -7.414698 8.292097 -2.628398 8.718794 2.348274 0.257217 6.859060 0.172002 -4.253529 5.088598 0.166356 -2.754284 -1.220646 0.265494 -10.734619 2.099674 0.323097 -11.781722 -4.215012 -30.626200 0.874975 4.302078 -51.779236 -6.132328 4.941662 6.051056 -8.327680 5.864834 -11.146788 4.381940 -3.997826 -7.641898 -3.261500 -8.702645 29.738765 4.684275 2.901792 52.980504 2.842331 10.086650 -8.010694 11.421888 -5.214370 8.122060 -3.654791 -3.757585 10.427651 7.950238 -3.298512 
-0.005341 -0.000553 -0.000859 175.955613 33.358621 -23.093552 0.195785 3.007942 14.937298 1.133787 -13.635533 -4.353388 2.096242 4.554971 -3.570530 -6.943090 7.845866 -2.643305 -1.517789 -4.467781 18.556101 -1.483102 2.305743 -5.028862 -4.004222 -6.706695 -7.440438 8.965554 -2.897568 9.319164 2.489497 0.439920 6.709349 0.211873 -3.989752 5.043051 0.105966 -2.587912 -1.267686 0.295235 -11.832553 1.612708 0.271285 -12.778135 -4.163431 -31.158572 1.614055 4.411736 -52.381153 -5.766287 6.269476 4.553335 -13.835083 9.187840 -12.881775 2.437989 -4.026938 -7.669268 -3.174779 -8.168799 30.034183 4.323531 3.189669 51.709424 2.104306 9.637792 -7.758384 10.772893 -4.738606 8.471293 -3.481689 -2.786571 10.223675 7.940422 -3.249549 
-0.003813 -0.001113 0.001924 175.804891 33.841364 -23.296152 0.401968 2.755993 14.847855 0.997549 -13.833539 -3.815693 2.263329 4.492996 -3.983133 -7.215376 7.747624 -2.748118 -1.445969 -4.660187 18.690534 -1.385878 2.113087 -4.805873 -4.241667 -6.635463 -7.584935 9.369868 -3.212034 9.437611 2.226925 0.740379 6.667025 0.160260 -3.697828 5.005759 0.007776 -2.341173 -1.184050 0.647881 -12.329555 2.125833 0.613522 -13.202642 -3.696204 -30.979155 1.973428 4.587438 -52.618919 -5.694570 6.905955 4.414725 -16.764754 10.688618 -12.964344 1.869718 -4.236352 -7.554419 -3.064167 -7.840146 29.890552 4.308239 3.404705 51.850655 1.848168 9.593848 -7.590019 10.420923 -4.063552 8.624769 -3.545475 -2.577306 10.026577 7.901452 -3.197462 
0.000226 -0.001348 0.009300 175.986907 33.726558 -23.549689 1.169186 3.368029 15.235160 0.650262 -14.318640 -2.980246 2.983879 4.696644 -5.538327 -7.822721 8.227023 -2.965079 -1.148278 -4.686792 18.578655 -1.383678 2.482331 -2.917193 -5.170176 -7.407559 -10.187952 10.267367 -3.300189 9.521365 1.522658 0.834983 5.839828 -0.074518 -3.859219 4.627159 -0.450724 -2.625690 -0.921169 0.613336 -11.509906 6.450746 -0.159738 -12.647415 -0.455156 -30.576364 1.293983 4.792772 -51.137224 -6.017161 6.599569 3.204292 -13.170997 11.884714 -12.354684 3.594859 -1.986744 -8.089950 -3.112718 -9.022415 29.544322 3.506353 3.539910 53.129566 0.951702 10.310120 -7.588563 13.492317 -2.038821 8.631947 -3.455552 -3.000290 10.401443 8.152897 -3.324744 
0.005209 -0.002979 0.031369 176.354611 32.210653 -24.917161 2.225228 4.159047 18.240622 1.133501 -14.541977 -3.130542 3.805031 5.474562 -6.078457 -8.741724 8.517705 -3.423357 -0.675284 -5.038321 20.998159 -1.372889 2.182391 -2.206972 -7.681703 -8.865844 -12.951846 13.132561 -3.945497 10.733529 0.570120 0.682471 3.553001 -0.065586 -4.083584 4.908474 -0.971233 -3.093339 -0.273638 -0.028613 -9.700858 16.292346 -2.968843 -10.754285 6.640348 -29.919700 2.340181 5.738275 -49.749596 -6.342295 6.150766 2.402633 -11.048592 13.424432 -14.122664 5.224453 -1.499660 -7.826887 -2.881484 -9.429137 30.169590 1.753585 3.655464 53.712374 1.592343 10.303641 -7.372654 12.527022 -1.858665 9.662538 -4.018997 -4.074306 10.394438 8.097218 -2.884745 
0.014908 -0.001669 0.057202 176.635581 28.933375 -25.929670 2.987140 4.380449 18.829293 1.985740 -13.740024 1.426124 4.577172 7.102333 -7.787439 -9.721060 8.739253 -3.820682 0.127902 -5.588628 23.522156 -1.105266 4.046939 -3.012542 -7.360446 -7.427289 -12.530782 14.227630 -3.377035 11.137211 -0.021863 0.653362 2.992349 0.463670 -3.700071 4.316615 -0.940852 -3.226929 0.357188 0.570972 -7.134104 21.079205 -5.883224 -8.248141 12.903020 -31.681762 6.838002 4.262482 -47.908155 -6.425863 4.373299 4.405522 -11.764688 9.521587 -13.724960 5.579035 -2.432961 -7.795545 -3.297548 -7.787333 33.771011 -1.604289 1.570698 50.842325 2.981528 9.658225 -7.108988 7.059167 -6.021117 9.021831 -5.004351 -3.223171 11.421926 8.282359 -2.174867 
0.036050 0.005753 0.054298 175.631382 28.209719 -22.556562 2.668387 0.833860 0.839919 -0.052270 -7.947135 26.312425 3.419551 8.499754 -7.650356 -8.209812 8.076865 -7.786158 2.744887 -5.329375 19.096036 -0.982871 4.568504 -3.197296 -6.460546 -5.987764 -13.543059 9.337764 -4.777420 9.706732 1.474975 1.662514 9.478114 0.624120 -4.296127 0.685854 0.314737 -2.938253 0.598024 -1.205018 -6.892806 8.705088 -2.897702 -7.260379 5.423378 -29.737462 5.694281 2.682462 -51.578732 -6.302278 4.443407 7.013283 -14.180008 7.140140 -11.567746 4.080624 -4.705536 -7.555577 -2.844670 -5.738608 30.876406 -1.244904 1.203992 53.444712 1.196452 8.848395 -8.689202 9.266006 -7.133945 7.806919 -3.817215 -6.619027 10.686923 7.685077 -1.753526 
0.041348 0.008541 0.058032 175.165819 29.999627 -20.272986 2.205573 -4.205893 -19.973892 -1.631561 0.250664 51.454243 3.077123 8.821667 -2.647837 -7.927465 8.662282 -11.859684 4.268528 -4.824446 15.733051 -1.325302 4.893865 -1.771129 -7.293503 -7.197323 -13.656694 5.393302 -4.504024 8.543532 2.942135 3.366376 16.701121 0.770276 -5.227639 -0.044975 1.206980 -2.458407 1.179649 -2.548512 -8.237276 -4.792739 0.869323 -6.844739 -3.802123 -28.331613 -0.135169 2.926506 -52.622358 -7.208308 6.306967 6.500640 -16.090834 9.342695 -11.286629 3.128177 -4.972804 -7.480045 -2.511979 -4.866059 28.561073 3.829676 2.983372 53.634362 0.647430 8.867928 -7.895244 8.241352 -5.333413 7.211592 -3.653021 -6.568909 9.770743 7.199880 -2.171651 
0.026021 0.002254 0.084973 176.875152 29.061475 -18.172686 1.045104 -4.409046 -28.812639 -0.759309 8.033767 48.313362 3.985413 9.732644 -2.955090 -6.880463 9.374187 -10.273512 3.133640 -5.432474 17.278569 -2.255626 5.912808 -3.276320 -5.139307 -6.911192 -12.915060 3.326342 -3.455228 6.641210 3.050397 4.828080 19.100758 0.474649 -5.115350 -1.322779 0.989335 -1.794682 1.910686 -3.294326 -7.277980 -8.301807 0.039366 -6.474243 -4.002707 -27.804645 0.726595 2.533044 -53.830531 -6.195669 6.802350 6.271584 -15.894270 10.958081 -10.635079 1.978834 -4.615525 -6.871973 -2.333895 -5.183037 28.077951 4.260123 2.797097 52.854134 2.476535 9.373802 -6.580321 4.478349 -5.096138 6.062416 -3.566730 -4.630035 9.546283 6.865964 -3.100358 
-0.007435 -0.002161 0.137504 178.028128 26.320837 -17.253425 -0.723419 -1.758592 -25.927542 -1.331266 10.025141 25.327337 1.623627 9.256590 -1.012247 -2.348106 9.396624 -7.227366 1.594238 -6.347938 22.236064 -2.877108 6.740527 -5.700130 -3.676873 -6.034652 -13.634891 4.114041 -3.277360 5.675915 3.639329 5.192219 18.032094 -0.204052 -4.764509 -0.526159 0.488042 -1.199301 2.114726 -4.150886 -5.928404 -7.499122 -2.282587 -6.982599 -3.572239 -28.669106 3.751550 1.988106 -55.363335 -3.164876 5.980314 6.844864 -13.178956 8.587724 -9.764483 1.269821 -5.125390 -6.469937 -2.182844 -6.877179 28.035503 3.199584 2.288224 52.601090 4.518166 9.956393 -7.342875 7.688496 -6.455938 4.744427 -2.266773 -4.609944 9.436665 6.532035 -3.778864 
-0.062034 -0.008282 0.216779 177.123517 25.783567 -17.338347 -4.905796 2.878401 -15.870491 -1.219149 13.372427 -1.594496 1.845757 11.968357 0.057274 -0.170249 8.649331 -3.017644 0.662909 -7.744584 27.034552 -2.502208 5.006099 -4.063067 -3.939895 -5.220892 -14.636120 8.223150 -3.848189 5.589881 4.958070 3.968350 15.448010 -0.131325 -4.828279 0.319258 0.481343 -1.301319 1.465614 -4.963317 -4.705386 -6.291951 -5.614647 -6.297433 -4.427439 -30.417823 5.947002 1.688583 -56.548586 0.661484 4.910067 5.996528 -8.572658 7.933468 -10.207705 1.316924 -4.058951 -6.268039 -2.150251 -9.661915 28.760615 2.254290 1.800599 51.162332 6.045964 10.525155 -7.906883 11.466746 -7.289563 3.939128 -0.888914 -4.178731 9.481883 6.384087 -4.486578 
-0.130952 -0.023639 0.298458 175.176585 31.556118 -17.527282 -7.448299 1.270370 -12.419772 -1.206011 9.436312 1.237865 3.707651 11.422827 2.309461 -0.419987 8.206712 -5.031000 -1.024956 -7.974054 25.769312 0.171778 5.034093 9.919472 -0.670508 -3.607641 -10.364266 5.849891 -1.879136 1.439450 4.757028 3.797396 12.066351 1.109462 -4.381635 -0.239065 0.958211 -1.627282 0.632859 -4.250896 -3.282958 -6.382071 -6.321445 -3.711299 -4.604799 -30.754526 7.144795 0.780772 -56.792468 1.389850 4.554411 5.101525 -6.390238 7.893536 -10.558302 2.695701 -2.980556 -8.868020 -3.253571 -11.727611 29.227430 -0.341069 1.164671 50.733415 3.733447 10.493839 -10.005493 13.694448 -9.119891 4.394437 -0.770640 -4.230465 11.374888 6.906855 -5.016498 
-0.202073 -0.046031 0.361734 175.106019 39.465939 -19.659471 -10.629588 1.315835 -0.715827 -3.041171 0.992495 -1.829902 9.928952 9.953283 -0.674297 -4.239311 8.353235 -5.498888 -7.372266 -7.977394 14.564264 3.620447 1.272991 40.617034 12.701920 -2.627904 11.344211 -3.988416 2.081632 -10.446268 3.013366 2.774710 9.045205 1.179499 -1.405675 1.171518 0.009071 -0.675850 0.300756 -4.254505 -1.195131 -3.251812 -6.562679 0.875829 -3.549040 -26.591899 6.796072 1.335847 -58.266762 -2.972341 4.382334 6.446235 -10.486012 6.703888 -11.075714 2.409587 -5.208703 -11.227342 -5.124906 -12.956638 26.440976 -0.954608 2.505342 55.702375 2.588866 10.664385 -9.822785 10.448504 -11.617981 7.083629 -1.754470 -3.876744 14.275775 8.074964 -6.676672 
-0.251605 -0.053160 0.412741 171.866176 48.281276 -25.104742 -10.905113 3.866612 11.652520 -1.741305 -9.773905 -5.677813 11.980151 8.826853 -3.515951 -7.608910 9.218327 -6.268206 -9.616459 -7.117508 0.903084 0.938181 -3.934627 62.567250 6.147548 -6.690449 3.173746 2.661931 3.312342 -8.348587 3.763495 -0.633343 10.512841 1.069520 1.012895 1.650017 -0.813918 -0.777474 -0.868040 -3.309651 4.238092 -0.154676 -10.401526 4.531213 -0.008420 -29.014302 4.387573 0.908627 -53.284597 -7.183746 4.824465 7.084944 -17.674215 6.479945 -10.821269 3.052381 -4.657038 -9.575394 -4.428807 -11.316958 29.875970 0.914367 3.612471 51.455328 3.205986 10.990805 -9.506530 9.380954 -13.192830 8.171266 -2.767380 -0.798479 11.636586 7.535224 -5.138241 
-0.289775 -0.070776 0.465232 160.860930 60.135289 -35.393137 -7.537552 3.989877 18.998134 1.103934 -18.789182 -5.552382 8.602666 6.485466 -5.469732 -7.456953 8.605481 -7.027515 -8.846003 -4.186560 -8.794478 -3.068177 -6.085599 54.312502 1.600710 -11.164022 -4.834646 4.867401 1.548426 -2.279920 4.583539 -4.034991 10.771353 1.238850 0.665862 1.301826 -0.270405 -2.187261 -0.689346 -2.698137 5.410213 2.468087 -10.427958 4.430987 1.652734 -27.885208 2.370319 1.749220 -53.425929 -10.902454 6.655382 7.977067 -23.535215 7.986381 -10.115799 2.528924 -4.424530 -7.088174 -3.291076 -8.788229 29.112833 1.329647 2.942082 51.143544 3.993949 9.797613 -11.770487 10.061932 -14.561230 7.727910 -2.826488 -1.881047 8.521615 6.716621 -3.358528 
